<?xml version="1.0" standalone="no"?>
<!DOCTYPE svg PUBLIC "-//W3C//DTD SVG 20010904//EN"
 "http://www.w3.org/TR/2001/REC-SVG-20010904/DTD/svg10.dtd">
<svg version="1.0" xmlns="http://www.w3.org/2000/svg"
 width="648.000000pt" height="648.000000pt" viewBox="0 0 648.000000 648.000000"
 preserveAspectRatio="xMidYMid meet">
<metadata>
Created by potrace 1.11, written by Peter Selinger 2001-2013
</metadata>
<g transform="translate(0.000000,648.000000) scale(0.100000,-0.100000)"
fill="#000000" stroke="none">
<path d="M4420 5965 c-223 -52 -249 -56 -521 -69 -300 -15 -343 -24 -355 -72
-14 -57 12 -70 168 -84 189 -16 252 -63 284 -213 20 -92 20 -2029 0 -2103 -45
-171 -188 -332 -390 -438 -230 -122 -506 -140 -725 -48 -235 99 -459 361 -486
567 -3 28 -10 79 -15 115 -45 319 -43 277 -36 860 3 305 7 742 7 971 2 372 0
419 -15 451 -26 54 -55 62 -162 43 -172 -31 -270 -43 -399 -50 -343 -16 -435
-41 -409 -109 10 -26 36 -35 139 -46 218 -25 289 -85 316 -270 9 -65 11 -302
6 -1015 -6 -917 -9 -993 -47 -1490 -16 -205 -28 -395 -40 -615 -14 -258 -38
-619 -50 -750 -5 -58 -13 -137 -16 -176 -8 -90 6 -134 60 -188 61 -61 147 -87
306 -93 116 -4 128 -3 169 19 66 34 86 80 85 193 -1 50 -6 151 -12 225 -12
151 -45 617 -62 875 -7 94 -16 214 -21 269 -15 167 -16 166 57 115 69 -47 260
-136 344 -159 365 -101 722 -44 1036 166 88 58 278 233 329 303 17 22 33 41
38 41 4 0 7 -30 7 -67 0 -111 19 -295 35 -344 31 -91 77 -107 217 -75 65 15
187 27 518 50 188 14 235 23 273 54 22 19 22 55 -1 75 -15 14 -41 17 -143 17
-242 0 -309 48 -344 246 -13 74 -15 272 -15 1416 0 1424 1 1380 -48 1407 -12
6 -22 11 -24 10 -2 -1 -28 -7 -58 -14z"/>
<path d="M4677 5581 c-12 -108 -8 -2220 4 -2350 17 -170 31 -190 142 -201 81
-7 127 -2 105 11 -10 7 -9 9 5 9 17 0 18 49 14 1088 l-3 1087 -22 84 c-36 133
-89 221 -167 274 -48 33 -55 33 -56 5 -1 -13 -5 -5 -8 17 -6 39 -7 38 -14 -24z"/>
<path d="M2497 5575 c-15 -10 -16 -92 -19 -881 -3 -913 -2 -936 43 -1179 19
-104 111 -248 209 -328 43 -36 45 -36 53 -15 4 13 1 54 -10 102 -15 72 -18
181 -23 1016 -5 919 -6 936 -27 1012 -30 104 -65 170 -122 227 -53 53 -79 64
-104 46z"/>
<path d="M3800 5528 c-19 -13 -48 -45 -64 -72 -60 -96 -42 -225 44 -330 23
-28 46 -58 51 -68 13 -25 27 -23 32 5 2 12 6 -3 7 -33 l3 -55 7 60 c19 153 4
505 -22 505 -4 0 -8 -6 -9 -12 0 -7 -4 -5 -8 5 -6 17 -9 16 -41 -5z"/>
<path d="M1645 5532 c-25 -5 -71 -55 -98 -107 -26 -52 -27 -149 -1 -208 23
-53 85 -146 113 -169 20 -17 21 -17 28 10 5 15 8 119 8 232 0 220 -6 250 -50
242z"/>
<path d="M3891 2858 c0 -10 -6 -18 -12 -18 -5 0 -7 6 -3 13 4 6 -6 0 -22 -14
-16 -15 -36 -29 -44 -32 -10 -4 -11 -6 -2 -6 19 -1 -12 -31 -32 -31 -9 0 -16
-4 -16 -10 0 -5 -8 -10 -19 -10 -10 0 -26 -11 -35 -25 -9 -14 -25 -25 -36 -25
-11 0 -20 -4 -20 -9 0 -5 -15 -12 -34 -15 -19 -4 -36 -10 -38 -14 -5 -11 -104
-57 -173 -80 -158 -51 -232 -64 -408 -70 -217 -6 -403 26 -577 102 -44 19 -82
30 -85 25 -3 -5 -1 -64 4 -131 6 -68 15 -199 21 -293 6 -93 15 -217 20 -275
43 -485 47 -655 20 -744 -13 -44 -79 -120 -124 -143 -45 -23 -133 -42 -199
-43 -108 0 -277 33 -351 69 -21 11 -34 15 -27 8 14 -14 15 -30 0 -22 -24 15
22 -205 59 -283 14 -30 47 -78 74 -107 222 -243 638 -212 774 58 64 124 82
278 64 527 -20 269 -19 434 3 498 26 74 85 144 143 172 68 31 179 49 310 50
150 0 298 22 440 66 251 77 282 85 369 90 65 4 111 1 165 -11 303 -67 299 -67
475 -67 315 0 554 54 648 147 57 57 72 94 72 175 -1 63 -5 82 -27 119 -47 78
-112 151 -140 157 -15 4 -25 11 -22 16 8 12 -36 0 -51 -13 -5 -5 -20 -9 -34
-9 -14 0 -50 -4 -80 -10 -31 -5 -175 -17 -321 -25 -173 -10 -296 -23 -354 -35
-50 -11 -103 -20 -119 -20 -47 0 -103 21 -141 51 -48 40 -76 100 -106 229 -4
19 -8 27 -9 18z"/>
</g>
</svg>
